<svg height="512pt" viewBox="0 0 512 512" width="512pt" xmlns="http://www.w3.org/2000/svg">
    <path d="m348.875 406.667969h-185.75c-32.328125 0-58.539062-26.210938-58.539062-58.542969v-11.816406h302.828124v11.816406c0 32.332031-26.210937 58.542969-58.539062 58.542969zm0 0" fill="#57545c"/>
    <path d="m407.421875 336.308594v11.820312c0 32.332032-26.210937 58.542969-58.550781 58.542969h-92.871094v-70.363281zm0 0" fill="#3a383f"/>
    <path d="m416.378906 161.542969c-90.894531-66.476563-124.890625-80.542969-160.378906-80.542969s-69.484375 14.066406-160.378906 80.542969c-86.660156 63.382812-68.210938 139.628906 19.9375 148.921875 84.738281 8.929687 140.441406 6.828125 140.441406 6.828125s55.703125 2.101562 140.441406-6.828125c88.148438-9.292969 106.597656-85.539063 19.9375-148.921875zm0 0" fill="#0061c6"/>
    <path d="m407.421875 308.890625c-3.53125.648437-7.191406 1.167969-10.980469 1.570313-84.742187 8.929687-140.441406 6.828124-140.441406 6.828124v-236.289062c35.488281 0 69.488281 14.070312 160.378906 80.539062 82.941406 60.671876 69.601563 133.101563-8.957031 147.351563zm0 0" fill="#003b91"/>
    <path d="m104.585938 308.617188h302.828124v30h-302.828124zm0 0" fill="#ffe767"/>
    <path d="m256 308.621094h151.421875v30h-151.421875zm0 0" fill="#ffd000"/>
    <path d="m316.851562 166.304688c-13.335937-2.570313-18.578124-22.660157-18.578124-22.660157-24.765626 11.679688-42.273438-13.601562-42.273438-13.601562s-17.507812 25.28125-42.273438 13.601562c0 0-5.242187 20.089844-18.578124 22.660157 0 0 26.628906 8.699218 10.496093 47.128906-13.574219 32.324218 38.089844 45.550781 50.355469 64.824218 12.265625-19.273437 63.929688-32.5 50.355469-64.824218-16.132813-38.429688 10.496093-47.128906 10.496093-47.128906zm0 0" fill="#ffe767"/>
    <path d="m306.355469 213.433594c13.570312 32.320312-38.089844 45.550781-50.355469 64.824218v-148.214843s17.503906 25.28125 42.277344 13.605469c0 0 5.234375 20.085937 18.574218 22.65625 0 0-26.628906 8.699218-10.496093 47.128906zm0 0" fill="#ffd000"/>
</svg>